#!OML:ASF H:\Not Pregnant\Project 1\Capture day 1\Session 1\non-pregnant.ASF
:FULLY-SPECIFIED
:DEGREES
2255
root 6.74775 6.40302 17.689 48.9343 2.87239 -22.7169
lowerback 17.5931 3.78669 -5.80752
upperback -9.48434 4.49532 3.93221
thorax -21.8723 3.22023 6.2343
lowerneck 3.76566 -14.5221 -19.4035
upperneck -32.8657 -14.7331 54.6557
head -1.18754 -11.6723 29.576
rclavicle -2.54444e-014 -3.18055e-014
rhumerus -1.87937 13.1479 -97.6629
rradius 18.6304
rwrist 44.4848
rhand -30.8881 6.6555
rfingers 7.12502
rthumb -4.17505 -23.2833
lclavicle -2.54444e-014 -3.18055e-014
lhumerus -14.1329 2.4932 86.1006
lradius 27.0054
lwrist -35.479
lhand -43.4916 -87.5024
lfingers 7.12502
lthumb -16.3317 -58.1701
rfemur -157.154 19.6059 51.9665
rtibia 125.307
rfoot -13.6164 -3.87547
rtoes -33.0715
lfemur 20.4873 -2.86631 -11.0655
ltibia 15.1456
lfoot 58.8274 2.51964
ltoes 25.4183
2256
root 6.73195 6.4029 17.6904 48.9316 2.93656 -22.6072
lowerback 17.6123 3.76152 -5.71481
upperback -9.51958 4.48044 3.90656
thorax -21.9161 3.19945 6.15613
lowerneck 3.69206 -14.5284 -19.3647
upperneck -33.0043 -14.6844 54.6597
head -1.23981 -11.6475 29.6138
rclavicle 3.81667e-014 4.6118e-014
rhumerus -1.91457 12.2103 -97.8556
rradius 18.4837
rwrist 44.5842
rhand -30.7395 7.21952
rfingers 7.12502
rthumb -4.03155 -22.7221
lclavicle 3.81667e-014 4.6118e-014
lhumerus -14.1549 2.39293 86.0569
lradius 26.9883
lwrist -35.3489
lhand -43.4713 -87.3929
lfingers 7.12502
lthumb -16.3122 -58.0589
rfemur -157.237 19.6128 51.866
rtibia 125.357
rfoot -13.6519 -4.46603
rtoes -33.8625
lfemur 20.496 -2.90851 -11
ltibia 15.1155
lfoot 58.8685 2.54835
ltoes 25.4806
2257
root 6.7158 6.40341 17.6915 48.9264 3.00088 -22.4883
lowerback 17.6342 3.73537 -5.62857
upperback -9.54678 4.46256 3.88347
thorax -21.9513 3.17801 6.08564
lowerneck 3.61566 -14.5396 -19.3322
upperneck -33.1526 -14.6422 54.6642
head -1.28966 -11.6263 29.6489
rclavicle -1.51076e-014 -3.65764e-014
rhumerus -1.91599 11.1646 -98.0601
rradius 18.3048
rwrist 44.6772
rhand -30.5193 7.85302
rfingers 7.12502
rthumb -3.81894 -22.0925
lclavicle -1.51076e-014 -3.65764e-014
lhumerus -14.1511 2.26213 86.0167
lradius 26.9578
lwrist -35.1701
lhand -43.4313 -87.2414
lfingers 7.12502
lthumb -16.2736 -57.9043
rfemur -157.317 19.6131 51.7536
rtibia 125.404
rfoot -13.6696 -5.06664
rtoes -34.5889
lfemur 20.502 -2.95514 -10.9376
ltibia 15.0867
lfoot 58.9123 2.57842
ltoes 25.5249
2258
root 6.69941 6.40456 17.6927 48.9228 3.07131 -22.3646
lowerback 17.6555 3.70874 -5.53954
upperback -9.57474 4.44589 3.86509
thorax -21.988 3.15726 6.01867
lowerneck 3.56014 -14.5518 -19.3145
upperneck -33.3093 -14.6056 54.6646
head -1.34282 -11.6087 29.6898
rclavicle -7.15625e-015 -6.36111e-015
rhumerus -1.90257 10.0107 -98.2721
rradius 18.1023
rwrist 44.7885
rhand -30.2421 8.55441
rfingers 7.12502
rthumb -3.55123 -21.3958
lclavicle -7.15625e-015 -6.36111e-015
lhumerus -14.1406 2.07922 85.9867
lradius 26.9183
lwrist -34.9257
lhand -43.3655 -87.0207
lfingers 7.12502
lthumb -16.2103 -57.6784
rfemur -157.398 19.6092 51.6353
rtibia 125.451
rfoot -13.6709 -5.68326
rtoes -35.2666
lfemur 20.4983 -3.00124 -10.8675
ltibia 15.0637
lfoot 58.9642 2.60223
ltoes 25.5595
2259
root 6.68277 6.40626 17.6937 48.9291 3.14501 -22.2315
lowerback 17.6674 3.67988 -5.45684
upperback -9.5985 4.42578 3.85228
thorax -22.0137 3.13624 5.96357
lowerneck 3.50213 -14.5691 -19.3051
upperneck -33.4754 -14.5759 54.6641
head -1.39334 -11.5945 29.7262
rclavicle -9.54166e-015 1.27222e-014
rhumerus -1.8597 8.79443 -98.486
rradius 17.8889
rwrist 44.9245
rhand -29.931 9.30251
rfingers 7.12502
rthumb -3.2508 -20.6525
lclavicle -9.54166e-015 1.27222e-014
lhumerus -14.1095 1.82804 85.9679
lradius 26.8764
lwrist -34.5786
lhand -43.2623 -86.7173
lfingers 7.12502
lthumb -16.1109 -57.3669
rfemur -157.487 19.603 51.5052
rtibia 125.494
rfoot -13.6481 -6.31133
rtoes -35.8867
lfemur 20.4932 -3.05566 -10.7995
ltibia 15.0139
lfoot 59.0309 2.65001
ltoes 25.5888
2260
root 6.66599 6.40865 17.6946 48.938 3.2364 -22.098
lowerback 17.6805 3.64874 -5.35935
upperback -9.623 4.40847 3.8483
thorax -22.0415 3.1153 5.90926
lowerneck 3.45171 -14.588 -19.3079
upperneck -33.6458 -14.5504 54.6582
head -1.4441 -11.5816 29.7604
rclavicle 2.06736e-014 4.77083e-015
rhumerus -1.8056 7.5574 -98.6955
rradius 17.6811
rwrist 45.082
rhand -29.6178 10.0546
rfingers 7.12502
rthumb -2.94831 -19.9048
lclavicle 2.06736e-014 4.77083e-015
lhumerus -14.0742 1.48276 85.9645
lradius 26.8352
lwrist -34.1155
lhand -43.1214 -86.3231
lfingers 7.12502
lthumb -15.9753 -56.9619
rfemur -157.575 19.5897 51.3821
rtibia 125.534
rfoot -13.6071 -6.95348
rtoes -36.4589
lfemur 20.5065 -3.11121 -10.7095
ltibia 14.9101
lfoot 59.1279 2.7114
ltoes 25.6269
